<svg width="43" height="43" viewBox="0 0 43 43" fill="none" xmlns="http://www.w3.org/2000/svg">
<path d="M38.2167 0.875H5.3096C2.83222 0.875 0.822266 2.87003 0.822266 5.32901V37.9918C0.822266 40.4508 2.83222 42.4458 5.3096 42.4458H38.2167C40.6941 42.4458 42.704 40.4508 42.704 37.9918V5.32901C42.704 2.87003 40.6941 0.875 38.2167 0.875ZM16.154 30.9396C10.9842 30.9396 6.80538 26.7918 6.80538 21.6604C6.80538 16.529 10.9842 12.3812 16.154 12.3812C18.6781 12.3812 20.7815 13.2906 22.4176 14.8124L19.8841 17.2342C19.1923 16.5754 17.9863 15.8052 16.1633 15.8052C12.9755 15.8052 10.3765 18.422 10.3765 21.6697C10.3765 24.9081 12.9755 27.5341 16.1633 27.5341C19.8654 27.5341 21.249 24.8896 21.4733 23.5348H16.154V20.3428H24.9791C25.0726 20.8067 25.1287 21.28 25.1287 21.8831C25.1287 27.1815 21.5481 30.9396 16.154 30.9396ZM36.7209 23.3492H34.0098V26.0402H31.28V23.3492H28.5689V20.6397H31.28V17.9487H34.0098V20.6397H36.7209V23.3492Z" fill="#774F40"/>
</svg>
