<svg width="42" height="43" viewBox="0 0 42 43" fill="none" xmlns="http://www.w3.org/2000/svg">
<path d="M37.3944 0.875H4.48733C3.29722 0.875 2.15585 1.34426 1.31431 2.17955C0.472771 3.01484 0 4.14774 0 5.32901L0 37.9918C0 39.1731 0.472771 40.306 1.31431 41.1413C2.15585 41.9765 3.29722 42.4458 4.48733 42.4458H17.3183V28.3127H11.4287V21.6604H17.3183V16.5902C17.3183 10.8232 20.7773 7.63768 26.0751 7.63768C28.6124 7.63768 31.2655 8.08679 31.2655 8.08679V13.7471H28.3422C25.4619 13.7471 24.5635 15.5213 24.5635 17.3409V21.6604H30.9935L29.9651 28.3127H24.5635V42.4458H37.3944C38.5846 42.4458 39.7259 41.9765 40.5675 41.1413C41.409 40.306 41.8818 39.1731 41.8818 37.9918V5.32901C41.8818 4.14774 41.409 3.01484 40.5675 2.17955C39.7259 1.34426 38.5846 0.875 37.3944 0.875Z" fill="#774F40"/>
</svg>
