<svg width="43" height="42" viewBox="0 0 43 42" fill="none" xmlns="http://www.w3.org/2000/svg">
<path d="M37.9727 0.0996094H4.97266C2.48828 0.0996094 0.472656 2.10027 0.472656 4.5662V37.3212C0.472656 39.7871 2.48828 41.7878 4.97266 41.7878H37.9727C40.457 41.7878 42.4727 39.7871 42.4727 37.3212V4.5662C42.4727 2.10027 40.457 0.0996094 37.9727 0.0996094ZM33.3883 14.8766C33.407 15.1371 33.407 15.407 33.407 15.6675C33.407 23.7353 27.2195 33.0314 15.9133 33.0314C12.4258 33.0314 9.19141 32.0264 6.47266 30.2956C6.96953 30.3514 7.44766 30.3701 7.95391 30.3701C10.832 30.3701 13.4758 29.4023 15.5852 27.7645C12.8852 27.7087 10.6164 25.95 9.83828 23.5306C10.7852 23.6702 11.6383 23.6702 12.6133 23.4189C9.80078 22.8513 7.69141 20.3947 7.69141 17.4263V17.3518C8.50703 17.8078 9.46328 18.0869 10.4664 18.1242C9.62306 17.5674 8.9317 16.812 8.45403 15.9254C7.97637 15.0389 7.72725 14.0488 7.72891 13.0434C7.72891 11.9082 8.02891 10.866 8.56328 9.96333C11.5914 13.6669 16.1383 16.0863 21.2383 16.3468C20.3664 12.2059 23.4883 8.84668 27.2383 8.84668C29.0102 8.84668 30.6039 9.58181 31.7289 10.7729C33.1164 10.5123 34.4477 10.0005 35.6289 9.30264C35.1695 10.7171 34.2039 11.9082 32.9289 12.6619C34.1664 12.5316 35.3664 12.1873 36.4727 11.7127C35.6383 12.9317 34.5883 14.0112 33.3883 14.8766Z" fill="#774F40"/>
</svg>
