<svg width="201" height="406" viewBox="0 0 201 406" fill="none" xmlns="http://www.w3.org/2000/svg">
<path d="M0.500013 203L0.500013 202.343L0.500013 201.687L0.500013 201.031L0.500013 200.376L0.500012 199.722L0.500012 199.067L0.500012 198.414L0.500012 197.76L0.500012 197.108L0.500012 196.456L0.500012 195.804L0.500012 195.153L0.500012 194.502L0.500012 193.852L0.500012 193.203L0.500012 192.554L0.500012 191.905L0.500012 191.257L0.500012 190.61L0.500012 189.963L0.500012 189.317L0.500012 188.671L0.500011 188.026L0.500011 187.381L0.500011 186.737L0.500011 186.094L0.500011 185.451L0.500011 184.808L0.500011 184.166L0.500011 183.525L0.500011 182.885L0.500011 182.244L0.500011 181.605L0.500011 180.966L0.500011 180.328L0.500011 179.69L0.500011 179.053L0.500011 178.416L0.500011 177.781L0.500011 177.145L0.50001 176.511L0.50001 175.876L0.50001 175.243L0.50001 174.61L0.50001 173.978L0.50001 173.346L0.50001 172.715L0.50001 172.085L0.50001 171.455L0.50001 170.826L0.50001 170.198L0.50001 169.57L0.50001 168.943L0.50001 168.317L0.50001 167.691L0.50001 167.066L0.50001 166.441L0.50001 165.817L0.500009 165.194L0.500009 164.572L0.500009 163.95L0.500009 163.329L0.500009 162.708L0.500009 162.088L0.500009 161.469L0.500009 160.851L0.500009 160.233L0.500009 159.616L0.500009 159L0.500009 158.384L0.500009 157.769L0.500009 157.155L0.500009 156.542L0.500009 155.929L0.500009 155.317L0.500009 154.705L0.500008 154.095L0.500008 153.485L0.500008 152.876L0.500008 152.267L0.500008 151.659L0.500008 151.052L0.500008 150.446L0.500008 149.841L0.500008 149.236L0.500008 148.632L0.500008 148.029L0.500008 147.426L0.500008 146.825L0.500008 146.224L0.500008 145.623L0.500008 145.024L0.500008 144.425L0.500008 143.827L0.500008 143.23L0.500007 142.634L0.500007 142.038L0.500007 141.444L0.500007 140.85L0.500007 140.257L0.500007 139.664L0.500007 139.073L0.500007 138.482L0.500007 137.892L0.500007 137.303L0.500007 136.715L0.500007 136.127L0.500007 135.54L0.500007 134.954L0.500007 134.369L0.500007 133.785L0.500007 133.202L0.500007 132.619L0.500007 132.038L0.500007 131.457L0.500006 130.877L0.500006 130.297L0.500006 129.719L0.500006 129.142L0.500006 128.565L0.500006 127.989L0.500006 127.414L0.500006 126.84L0.500006 126.267L0.500006 125.695L0.500006 125.123L0.500006 124.553L0.500006 123.983L0.500006 123.414L0.500006 122.847L0.500006 122.28L0.500006 121.713L0.500006 121.148L0.500006 120.584L0.500006 120.021L0.500005 119.458L0.500005 118.896L0.500005 118.336L0.500005 117.776L0.500005 117.217L0.500005 116.659L0.500005 116.102L0.500005 115.546L0.500005 114.991L0.500005 114.437L0.500005 113.884L0.500005 113.331L0.500005 112.78L0.500005 112.23L0.500005 111.68L0.500005 111.132L0.500005 110.584L0.500005 110.037L0.500005 109.492L0.500005 108.947L0.500005 108.403L0.500004 107.861L0.500004 107.319L0.500004 106.778L0.500004 106.238L0.500004 105.699L0.500004 105.161L0.500004 104.625L0.500004 104.089L0.500004 103.554L0.500004 103.02L0.500004 102.487L0.500004 101.955L0.500004 101.424L0.500004 100.895L0.500004 100.366L0.500004 99.8381L0.500004 99.3113L0.500004 98.7855L0.500004 98.2608L0.500004 97.7371L0.500004 97.2145L0.500003 96.6928L0.500003 96.1723L0.500003 95.6527L0.500003 95.1342L0.500003 94.6168L0.500003 94.1004L0.500003 93.5851L0.500003 93.0708L0.500003 92.5576L0.500003 92.0454L0.500003 91.5343L0.500003 91.0243L0.500003 90.5154L0.500003 90.0076L0.500003 89.5008L0.500003 88.9951L0.500003 88.4905L0.500003 87.987L0.500003 87.4845L0.500003 86.9832L0.500003 86.483L0.500003 85.9838L0.500002 85.4858L0.500002 84.9889L0.500002 84.4931L0.500002 83.9984L0.500002 83.5049L0.500002 83.0124L0.500002 82.5211L0.500002 82.0309L0.500002 81.5419L0.500002 81.0539L0.500002 80.5671L0.500002 80.0815L0.500002 79.597L0.500002 79.1136L0.500002 78.6314L0.500002 78.1503L0.500002 77.6704L0.500002 77.1917L0.500002 76.7141L0.500002 76.2377L0.500002 75.7624L0.500002 75.2883L0.500002 74.8154L0.500002 74.3437L0.500001 73.8732L0.500001 73.4038L0.500001 72.9356L0.500001 72.4686L0.500001 72.0028L0.500001 71.5382L0.500001 71.0748L0.500001 70.6126L0.500001 70.1516L0.500001 69.6918L0.500001 69.2332L0.500001 68.7759L0.500001 68.3197L0.500001 67.8648L0.500001 67.4111L0.500001 66.9586L0.500001 66.5074L0.500001 66.0574L0.500001 65.6086L0.500001 65.1611L0.500001 64.7148L0.500001 64.2697L0.500001 63.8259L0.500001 63.3834L0.500001 62.9421L0.5 62.5021L0.5 62.0633L0.5 61.6258L0.5 61.1895L0.5 60.7546L0.5 60.3209L0.5 59.8884L0.5 59.4573L0.5 59.0275L0.5 58.5989L0.5 58.1716L0.5 57.7456L0.5 57.3209L0.5 56.8975L0.5 56.4755L0.5 56.0547L0.5 55.6352L0.5 55.217L0.5 54.8002L0.5 54.3846L0.5 53.9704L0.5 53.5575L0.5 53.146L0.5 52.7357L0.5 52.3268L0.5 51.9192L0.5 51.513L0.499999 51.1081L0.499999 50.7046L0.499999 50.3024L0.499999 49.9016L0.499999 49.5021L0.499999 49.104L0.499999 48.7072L0.499999 48.3118L0.499999 47.9177L0.499999 47.5251L0.499999 47.1338L0.499999 46.7439L0.499999 46.3553L0.499999 45.9682L0.499999 45.5824L0.499999 45.198L0.499999 44.8151L0.499999 44.4335L0.499999 44.0532L0.499999 43.6745L0.499999 43.2971L0.499999 42.9211L0.499999 42.5465L0.499999 42.1734L0.499999 41.8016L0.499999 41.4313L0.499999 41.0624L0.499999 40.6949L0.499999 40.3289L0.499999 39.9643L0.499998 39.6011L0.499998 39.2394L0.499998 38.8791L0.499998 38.5203L0.499998 38.1629L0.499998 37.8069L0.499998 37.4524L0.499998 37.0994L0.499998 36.7478L0.499998 36.3977L0.499998 36.0491L0.499998 35.7019L0.499998 35.3562L0.499998 35.0119L0.499998 34.6692L0.499998 34.328L0.499998 33.9882L0.499998 33.6499L0.499998 33.3131L0.499998 32.9778L0.499998 32.644L0.499998 32.3117L0.499998 31.9809L0.499998 31.6516L0.499998 31.3238L0.499998 30.9975L0.499998 30.6728L0.499998 30.3495L0.499998 30.0278L0.499998 29.7077L0.499998 29.389L0.499998 29.0719L0.499998 28.7563L0.499998 28.4422L0.499997 28.1297L0.499997 27.8188L0.499997 27.5094L0.499997 27.2015L0.499997 26.8952L0.499997 26.5904L0.499997 26.2872L0.499997 25.9856L0.499997 25.6855L0.499997 25.387L0.499997 25.0901L0.499997 24.7948L0.499997 24.501L0.499997 24.2088L0.499997 23.9182L0.499997 23.6292L0.499997 23.3418L0.499997 23.056L0.499997 22.7717L0.499997 22.4891L0.499997 22.2081L0.499997 21.9287L0.499997 21.6509L0.499997 21.3747L0.499997 21.1001L0.499997 20.8271L0.499997 20.5558L0.499997 20.2861L0.499997 20.018L0.499997 19.7515L0.499997 19.4867L0.499997 19.2236L0.499997 18.962L0.499997 18.7021L0.499997 18.4439L0.499997 18.1873L0.499997 17.9324L0.499997 17.6791L0.499997 17.4274L0.499997 17.1775L0.499997 16.9292L0.499996 16.6826L0.499996 16.4376L0.499996 16.1944L0.499996 15.9527L0.499996 15.7128L0.499996 15.4746L0.499996 15.2381L0.499996 15.0032L0.499996 14.77L0.499996 14.5386L0.499996 14.3088L0.499996 14.0808L0.499996 13.8544L0.499996 13.6297L0.499996 13.4068L0.499996 13.1856L0.499996 12.9661L0.499996 12.7483L0.499996 12.5323L0.499996 12.318L0.499996 12.1054L0.499996 11.8945L0.499996 11.6854L0.499996 11.478L0.499996 11.2724L0.499996 11.0685L0.499996 10.8664L0.499996 10.666L0.499996 10.4674L0.499996 10.2705L0.499996 10.0754L0.499996 9.8821L0.499996 9.69054L0.499996 9.50075L0.499996 9.31273L0.499996 9.12648L0.499996 8.942L0.499996 8.75933L0.499996 8.57845L0.499996 8.39934L0.499996 8.22206L0.499996 8.04653L0.499996 7.87282L0.499996 7.70091L0.499996 7.53084L0.499996 7.36254L0.499996 7.19606L0.499996 7.03139L0.499996 6.86855L0.499996 6.70754L0.499996 6.54836L0.499996 6.39098L0.499996 6.23543L0.499996 6.08174L0.499996 5.92986L0.499996 5.77983L0.499996 5.63167L0.499996 5.48534L0.499995 5.34084L0.499995 5.19823L0.499995 5.05745L0.499995 4.91854L0.499995 4.78148L0.499995 4.64629L0.499995 4.51296L0.499995 4.38152L0.499995 4.25194L0.499995 4.12422L0.499995 3.99843L0.499995 3.8745L0.499995 3.75246L0.499995 3.63228L0.499995 3.51403L0.499995 3.39766L0.499995 3.28319L0.499995 3.17064L0.499995 3.05998L0.499995 2.95125L0.499995 2.84441L0.499995 2.73949L0.499995 2.63649L0.499995 2.53539L0.499995 2.43624L0.499995 2.33901L0.499995 2.24373L0.499995 2.15035L0.499995 2.05892L0.499995 1.96944L0.499995 1.88188L0.499995 1.79631L0.499995 1.71266L0.499995 1.63097L0.499995 1.55123L0.499995 1.47344L0.499995 1.39763L0.499995 1.32378L0.499995 1.25188L0.499995 1.18196L0.499995 1.11403L0.499995 1.04805L0.499995 0.984087L0.499995 0.922076L0.499995 0.862078L0.499995 0.804064L0.499995 0.748034L0.499995 0.693987L0.499995 0.641955L0.499995 0.591936L0.499995 0.543902L0.499995 0.500597C110.999 0.773018 200.5 91.326 200.5 203C200.5 314.674 110.999 405.227 0.50003 405.499L0.50003 405.456L0.50003 405.408L0.50003 405.358L0.50003 405.306L0.50003 405.252L0.50003 405.196L0.50003 405.138L0.50003 405.078L0.50003 405.016L0.50003 404.952L0.50003 404.886L0.50003 404.818L0.50003 404.748L0.50003 404.676L0.50003 404.602L0.50003 404.527L0.50003 404.449L0.50003 404.369L0.50003 404.287L0.50003 404.204L0.50003 404.118L0.50003 404.031L0.50003 403.941L0.50003 403.85L0.50003 403.756L0.50003 403.661L0.50003 403.564L0.50003 403.465L0.50003 403.364L0.50003 403.261L0.50003 403.156L0.50003 403.049L0.50003 402.94L0.50003 402.829L0.50003 402.717L0.50003 402.602L0.50003 402.486L0.50003 402.368L0.50003 402.248L0.50003 402.126L0.50003 402.002L0.50003 401.876L0.50003 401.748L0.50003 401.619L0.50003 401.487L0.50003 401.354L0.50003 401.219L0.50003 401.081L0.50003 400.943L0.50003 400.802L0.50003 400.659L0.50003 400.515L0.50003 400.368L0.50003 400.22L0.50003 400.07L0.50003 399.918L0.50003 399.765L0.50003 399.609L0.50003 399.452L0.50003 399.292L0.50003 399.131L0.50003 398.969L0.50003 398.804L0.50003 398.637L0.50003 398.469L0.50003 398.299L0.50003 398.127L0.50003 397.953L0.50003 397.778L0.50003 397.601L0.50003 397.422L0.50003 397.241L0.50003 397.058L0.50003 396.874L0.50003 396.687L0.50003 396.499L0.50003 396.309L0.50003 396.118L0.50003 395.925L0.50003 395.729L0.50003 395.533L0.50003 395.334L0.50003 395.134L0.50003 394.931L0.50003 394.728L0.50003 394.522L0.500029 394.315L0.500029 394.105L0.500029 393.895L0.500029 393.682L0.500029 393.468L0.500029 393.252L0.500029 393.034L0.500029 392.814L0.500029 392.593L0.500029 392.37L0.500029 392.146L0.500029 391.919L0.500029 391.691L0.500029 391.461L0.500029 391.23L0.500029 390.997L0.500029 390.762L0.500029 390.525L0.500029 390.287L0.500029 390.047L0.500029 389.806L0.500029 389.562L0.500029 389.317L0.500029 389.071L0.500029 388.823L0.500029 388.573L0.500029 388.321L0.500029 388.068L0.500029 387.813L0.500029 387.556L0.500029 387.298L0.500029 387.038L0.500029 386.776L0.500029 386.513L0.500029 386.248L0.500029 385.982L0.500029 385.714L0.500029 385.444L0.500029 385.173L0.500029 384.9L0.500029 384.625L0.500029 384.349L0.500029 384.071L0.500029 383.792L0.500029 383.511L0.500029 383.228L0.500029 382.944L0.500028 382.658L0.500028 382.371L0.500028 382.082L0.500028 381.791L0.500028 381.499L0.500028 381.205L0.500028 380.91L0.500028 380.613L0.500028 380.314L0.500028 380.014L0.500028 379.713L0.500028 379.41L0.500028 379.105L0.500028 378.799L0.500028 378.491L0.500028 378.181L0.500028 377.87L0.500028 377.558L0.500028 377.244L0.500028 376.928L0.500028 376.611L0.500028 376.292L0.500028 375.972L0.500028 375.65L0.500028 375.327L0.500028 375.002L0.500028 374.676L0.500028 374.348L0.500028 374.019L0.500028 373.688L0.500028 373.356L0.500028 373.022L0.500028 372.687L0.500028 372.35L0.500028 372.012L0.500028 371.672L0.500027 371.331L0.500027 370.988L0.500027 370.644L0.500027 370.298L0.500027 369.951L0.500027 369.602L0.500027 369.252L0.500027 368.901L0.500027 368.548L0.500027 368.193L0.500027 367.837L0.500027 367.48L0.500027 367.121L0.500027 366.761L0.500027 366.399L0.500027 366.036L0.500027 365.671L0.500027 365.305L0.500027 364.938L0.500027 364.569L0.500027 364.198L0.500027 363.827L0.500027 363.453L0.500027 363.079L0.500027 362.703L0.500027 362.326L0.500027 361.947L0.500027 361.567L0.500027 361.185L0.500027 360.802L0.500027 360.418L0.500026 360.032L0.500026 359.645L0.500026 359.256L0.500026 358.866L0.500026 358.475L0.500026 358.082L0.500026 357.688L0.500026 357.293L0.500026 356.896L0.500026 356.498L0.500026 356.098L0.500026 355.698L0.500026 355.295L0.500026 354.892L0.500026 354.487L0.500026 354.081L0.500026 353.673L0.500026 353.264L0.500026 352.854L0.500026 352.442L0.500026 352.03L0.500026 351.615L0.500026 351.2L0.500026 350.783L0.500026 350.365L0.500026 349.945L0.500026 349.525L0.500026 349.102L0.500026 348.679L0.500025 348.254L0.500025 347.828L0.500025 347.401L0.500025 346.973L0.500025 346.543L0.500025 346.112L0.500025 345.679L0.500025 345.245L0.500025 344.81L0.500025 344.374L0.500025 343.937L0.500025 343.498L0.500025 343.058L0.500025 342.617L0.500025 342.174L0.500025 341.73L0.500025 341.285L0.500025 340.839L0.500025 340.391L0.500025 339.943L0.500025 339.493L0.500025 339.041L0.500025 338.589L0.500025 338.135L0.500025 337.68L0.500025 337.224L0.500024 336.767L0.500024 336.308L0.500024 335.848L0.500024 335.387L0.500024 334.925L0.500024 334.462L0.500024 333.997L0.500024 333.531L0.500024 333.064L0.500024 332.596L0.500024 332.127L0.500024 331.656L0.500024 331.185L0.500024 330.712L0.500024 330.238L0.500024 329.762L0.500024 329.286L0.500024 328.808L0.500024 328.33L0.500024 327.85L0.500024 327.369L0.500024 326.886L0.500024 326.403L0.500024 325.919L0.500023 325.433L0.500023 324.946L0.500023 324.458L0.500023 323.969L0.500023 323.479L0.500023 322.988L0.500023 322.495L0.500023 322.002L0.500023 321.507L0.500023 321.011L0.500023 320.514L0.500023 320.016L0.500023 319.517L0.500023 319.017L0.500023 318.515L0.500023 318.013L0.500023 317.51L0.500023 317.005L0.500023 316.499L0.500023 315.992L0.500023 315.485L0.500023 314.976L0.500023 314.466L0.500022 313.955L0.500022 313.442L0.500022 312.929L0.500022 312.415L0.500022 311.9L0.500022 311.383L0.500022 310.866L0.500022 310.347L0.500022 309.828L0.500022 309.307L0.500022 308.786L0.500022 308.263L0.500022 307.739L0.500022 307.214L0.500022 306.689L0.500022 306.162L0.500022 305.634L0.500022 305.105L0.500022 304.576L0.500022 304.045L0.500022 303.513L0.500022 302.98L0.500021 302.446L0.500021 301.911L0.500021 301.375L0.500021 300.839L0.500021 300.301L0.500021 299.762L0.500021 299.222L0.500021 298.681L0.500021 298.139L0.500021 297.597L0.500021 297.053L0.500021 296.508L0.500021 295.963L0.500021 295.416L0.500021 294.869L0.500021 294.32L0.500021 293.771L0.500021 293.22L0.500021 292.669L0.500021 292.116L0.500021 291.563L0.50002 291.009L0.50002 290.454L0.50002 289.898L0.50002 289.341L0.50002 288.783L0.50002 288.224L0.50002 287.664L0.50002 287.104L0.50002 286.542L0.50002 285.979L0.50002 285.416L0.50002 284.852L0.50002 284.287L0.50002 283.72L0.50002 283.153L0.50002 282.586L0.50002 282.017L0.50002 281.447L0.50002 280.877L0.50002 280.305L0.500019 279.733L0.500019 279.16L0.500019 278.586L0.500019 278.011L0.500019 277.435L0.500019 276.858L0.500019 276.281L0.500019 275.703L0.500019 275.123L0.500019 274.543L0.500019 273.962L0.500019 273.381L0.500019 272.798L0.500019 272.215L0.500019 271.631L0.500019 271.046L0.500019 270.46L0.500019 269.873L0.500019 269.285L0.500019 268.697L0.500018 268.108L0.500018 267.518L0.500018 266.927L0.500018 266.336L0.500018 265.743L0.500018 265.15L0.500018 264.556L0.500018 263.962L0.500018 263.366L0.500018 262.77L0.500018 262.173L0.500018 261.575L0.500018 260.976L0.500018 260.377L0.500018 259.776L0.500018 259.175L0.500018 258.574L0.500018 257.971L0.500018 257.368L0.500017 256.764L0.500017 256.159L0.500017 255.554L0.500017 254.948L0.500017 254.341L0.500017 253.733L0.500017 253.124L0.500017 252.515L0.500017 251.905L0.500017 251.295L0.500017 250.683L0.500017 250.071L0.500017 249.458L0.500017 248.845L0.500017 248.231L0.500017 247.616L0.500017 247L0.500017 246.384L0.500017 245.767L0.500016 245.149L0.500016 244.531L0.500016 243.912L0.500016 243.292L0.500016 242.671L0.500016 242.05L0.500016 241.428L0.500016 240.806L0.500016 240.183L0.500016 239.559L0.500016 238.934L0.500016 238.309L0.500016 237.683L0.500016 237.057L0.500016 236.43L0.500016 235.802L0.500016 235.174L0.500016 234.545L0.500015 233.915L0.500015 233.285L0.500015 232.654L0.500015 232.022L0.500015 231.39L0.500015 230.757L0.500015 230.124L0.500015 229.489L0.500015 228.855L0.500015 228.219L0.500015 227.584L0.500015 226.947L0.500015 226.31L0.500015 225.672L0.500015 225.034L0.500015 224.395L0.500015 223.756L0.500015 223.116L0.500014 222.475L0.500014 221.834L0.500014 221.192L0.500014 220.549L0.500014 219.907L0.500014 219.263L0.500014 218.619L0.500014 217.974L0.500014 217.329L0.500014 216.683L0.500014 216.037L0.500014 215.39L0.500014 214.743L0.500014 214.095L0.500014 213.446L0.500014 212.797L0.500014 212.148L0.500014 211.498L0.500013 210.847L0.500013 210.196L0.500013 209.544L0.500013 208.892L0.500013 208.24L0.500013 207.586L0.500013 206.933L0.500013 206.278L0.500013 205.624L0.500013 204.969L0.500013 204.313L0.500013 203.657L0.500013 203Z" fill="#EDDAB8" stroke="#F4E6CD"/>
</svg>
