<svg width="49" height="40" viewBox="0 0 49 40" fill="none" xmlns="http://www.w3.org/2000/svg">
<path d="M15.0562 0.302734C7.43883 0.302734 0.949219 5.99453 0.949219 13.3868C0.949219 18.4863 3.33877 22.7797 6.50571 26.3362C9.66177 29.8805 13.7336 32.8555 17.4146 35.3454L23.7658 39.6416C24.4614 40.1121 25.3735 40.1121 26.069 39.6416L32.4202 35.3454C36.1013 32.8555 40.1731 29.8805 43.3292 26.3362C46.4961 22.7797 48.8857 18.4863 48.8857 13.3868C48.8857 5.99453 42.396 0.302734 34.7787 0.302734C30.852 0.302734 27.3969 2.14262 24.9174 4.52329C22.438 2.14262 18.9828 0.302734 15.0562 0.302734Z" fill="#774F40"/>
</svg>
